# xmcd
# 
# Track frame offsets:
#     182
#     12677
#     31575
#     44002
#     57167
#     72900
#     90040
#     109627
#     128852
#     141142
#     159192
# 
# Disc length: 2361
# 
# Revision: 6
# Processed by: cddbd v1.5.2PL0 Copyright (c) Steve Scherf et al.
# Submitted via: fre:ac v1.0.17
# 
DISCID=8609370b
DTITLE=Various Artist - New Country - April 1994
DYEAR=1994
DGENRE=Country
TTITLE0=Rick Trevino - Honky Tonk Crowd
TTITLE1=Suzy Bogguss - Souvenirs
TTITLE2=Tracy Lawrence - My Second Home
TTITLE3=Dude Mowrey - Somewhere In Between
TTITLE4=Kenny Chesney - The Tin Man
TTITLE5=Junior Brown - My Wife Thinks You're Dead
TTITLE6=C.C. Adcock - Couchemal
TTITLE7=Lee Roy Parnell - I'm Holding My Own
TTITLE8=Neal McCoy - Wink
TTITLE9=Sawyer Brown - Outskirts Of Town
TTITLE10=Courtney and Western - Lovin' You Is Killin' Me
EXTD=
EXTT0=
EXTT1=
EXTT2=
EXTT3=
EXTT4=
EXTT5=
EXTT6=
EXTT7=
EXTT8=
EXTT9=
EXTT10=
PLAYORDER=
